<?xml version="1.0" encoding="UTF-8"?>
<svg id="back" data-name="Layer 2" xmlns="http://www.w3.org/2000/svg" viewBox="0 0 240.54 121">
  <defs>
    <style>
      .cls-1 {
        fill: #fee7d6;
      }

      .cls-2 {
        fill: #512a4e;
      }

      .cls-3 {
        fill: none;
        stroke: #fbaf73;
        stroke-miterlimit: 10;
        stroke-width: 2px;
      }
    </style>
  </defs>
  <g id="Layer_1-2" data-name="Layer 1">
    <rect class="cls-2" x="1.34" y=".01" width="237.44" height="120"/>
    <g>
      <polyline class="cls-3" points="239.54 0 239.54 120 1 120 1 0"/>
      <g>
        <rect class="cls-1" x="69.26" y="38.93" width="1.56" height="40.6" transform="translate(129.27 -10.81) rotate(90)"/>
        <polygon class="cls-1" points="62.59 68.79 50.51 59.31 50.15 59.02 49.25 58.31 48.15 59.18 48.06 59.31 48.15 59.44 49.25 60.3 49.26 60.31 62.59 70.78 62.59 68.79"/>
        <polygon class="cls-1" points="62.59 47.83 49.26 58.31 49.25 58.31 48.15 59.18 47.99 59.31 48.15 59.44 49.25 60.3 50.15 59.59 50.51 59.31 62.59 49.82 62.59 47.83"/>
      </g>
    </g>
  </g>
</svg>