<svg xmlns="http://www.w3.org/2000/svg" width="296.336" height="81.833" viewBox="0 0 296.336 81.833">
  <g id="Group_356" data-name="Group 356" transform="translate(-876.332 -18.626)">
    <path id="Path_15" data-name="Path 15" d="M909.986,46.538c0,10.235-8.737,18.093-20.73,18.093H876.332v-.362c.776-.465,1.138-1.241,1.138-3.05V31.908c0-1.809-.362-2.585-1.138-3.05v-.414h12.924c11.993,0,20.73,7.91,20.73,18.094m-4.084,0c0-9.513-6.307-17.68-16.646-17.68h-7.7V64.269h7.7c10.339,0,16.646-8.168,16.646-17.731" fill="#faae73"/>
    <path id="Path_16" data-name="Path 16" d="M920.121,31.908V61.219c0,1.809.362,2.585,1.189,3.05v.361H914.9v-.361c.775-.465,1.137-1.241,1.137-3.05V31.908c0-1.81-.362-2.585-1.137-3.05v-.414h6.41v.414c-.827.465-1.189,1.24-1.189,3.05" fill="#faae73"/>
    <path id="Path_17" data-name="Path 17" d="M953,32.786l-1.551,5.377h-.362c-2.946-6.927-6.72-9.564-10.8-9.564-5.118,0-8.064,2.895-8.375,6-.982,10.339,21.2,6.927,21.2,19.851,0,6.151-5.531,10.494-12.872,10.494-6.151,0-9.977-2.068-14.009-5.118l1.551-5.893h.361c2.637,5.272,7.444,9.977,14.217,9.977,4.394,0,8.064-2.843,8.477-6.1,1.345-11.011-20.884-7.495-20.884-20.471,0-4.188,3.36-9.409,11.683-9.409,3.98,0,8.323,2.481,11.373,4.859" fill="#faae73"/>
    <path id="Path_18" data-name="Path 18" d="M993.945,54.4c-2.791,5.789-7.754,10.546-16.9,10.546-10.184,0-19.024-8.271-19.024-18.507s9.253-18.507,19.489-18.507c5.583,0,8.943,1.447,13.337,4.342l-1.55,5.893h-.362c-3.774-5.995-9.926-10.442-16.7-8.994-8.84,1.912-12.045,12.354-9.253,21.505,2.791,9.1,10.236,13.854,19.334,12.458,4.652-.672,8.633-3.722,11.269-8.891Z" fill="#faae73"/>
    <path id="Path_19" data-name="Path 19" d="M1049.911,46.434c0,13.988-11.716,25.421-25.776,25.421s-25.776-11.433-25.776-25.421a25.778,25.778,0,0,1,51.552,0m-6.817-5.823c-3.835-12.5-14.344-21.515-26.2-17.894s-15.55,16.971-11.716,29.469c3.834,12.568,14.344,21.585,26.2,17.964s15.55-16.97,11.716-29.539" fill="#fde6d4"/>
    <path id="Path_20" data-name="Path 20" d="M1076.817,38.37l-7.754,21.815,1.706,4.446h-4.084S1058.1,42.4,1056.553,38.37a35.2,35.2,0,0,0-5.377-9.512v-.414h7.91v.414c-1.293,1.345-.879,3.153.568,6.927l9.2,23.883,7.548-21.3c1.654-4.653,1.912-7.185-.311-9.512v-.414h6.152v.414c-2.223,2.327-3.722,4.7-5.428,9.512" fill="#faae73"/>
    <path id="Path_21" data-name="Path 21" d="M1108.25,58.376l-1.137,6.255h-20.988v-.362c.775-.465,1.137-1.241,1.137-3.05V31.908c0-1.809-.362-2.585-1.137-3.05v-.414h19.333l1.086,5.738-.259.207c-2.378-2.688-5.582-5.531-11.321-5.531h-3.618v15.25l13.027-1.137v2.636l-13.027-1.086V64.269h4.187a15.642,15.642,0,0,0,12.407-6.1Z" fill="#faae73"/>
    <path id="Path_22" data-name="Path 22" d="M1140.768,64.269v.361h-7.961v-.361c1.344-1.344.259-3.2-1.757-6.772l-5.532-9.667c-.776.051-1.551.1-2.326.1h-4.808V61.219c0,1.809.362,2.585,1.137,3.05v.361h-6.358v-.361c.775-.465,1.137-1.241,1.137-3.05V31.908c0-1.861-.362-2.585-1.137-3.05v-.414h10.029c8.012,0,15.25,3,15.25,9.77,0,4.86-3.877,7.806-9.047,9l4.653,8.167c3.05,5.325,4.7,7.082,6.72,8.892m-6.41-26.055c0-4.032-1.344-9.356-11.166-9.356h-4.808V47.52h4.808c9.77,0,11.166-5.325,11.166-9.306" fill="#faae73"/>
    <path id="Path_23" data-name="Path 23" d="M1172.668,28.444v.414c-2.378,2.015-3.515,3.1-6.152,8.685L1159.9,51.759v9.46c0,1.809.362,2.585,1.189,3.05v.361h-6.411v-.361c.776-.465,1.138-1.241,1.138-3.05V52.327s-8.684-16.284-9.77-18.4a18.622,18.622,0,0,0-4.5-5.065v-.414h9.047v.414c-1.344,1.344-1.344,3.515.62,7.185l8.272,15.56,7.03-14.939c2.171-4.86,1.913-6.256.052-7.806v-.414Z" fill="#faae73"/>
    <path id="Path_24" data-name="Path 24" d="M1006.64,86.72l-.141.071a6.63,6.63,0,0,0-5.152-2.753h-.518V98.766c0,.823.188,1.176.541,1.388v.165h-2.917v-.165c.353-.212.541-.565.541-1.388V84.038h-.518a6.63,6.63,0,0,0-5.152,2.753l-.141-.071.753-2.87h11.951Z" fill="#fde6d4"/>
    <path id="Path_25" data-name="Path 25" d="M1025.016,92.037a8.541,8.541,0,1,1-8.541-8.423,8.53,8.53,0,0,1,8.541,8.423m-2.259-1.929c-1.271-4.141-4.752-7.128-8.681-5.929s-5.152,5.623-3.882,9.763c1.27,4.165,4.752,7.153,8.681,5.953s5.152-5.623,3.882-9.787" fill="#fde6d4"/>
    <path id="Path_26" data-name="Path 26" d="M1044.333,92.037a8.541,8.541,0,1,1-8.541-8.423,8.53,8.53,0,0,1,8.541,8.423m-2.259-1.929c-1.271-4.141-4.752-7.128-8.681-5.929s-5.153,5.623-3.882,9.763c1.27,4.165,4.752,7.153,8.681,5.953s5.152-5.623,3.882-9.787" fill="#fde6d4"/>
    <path id="Path_27" data-name="Path 27" d="M1056.9,97.472l-.518,2.847h-9.81v-.165c.376-.212.541-.564.541-1.388V85.426c0-.846-.165-1.176-.541-1.388v-.187h2.917v.187c-.353.212-.518.542-.518,1.388v14.728h2.141a7.082,7.082,0,0,0,5.647-2.776Z" fill="#fde6d4"/>
    <path id="Path_28" data-name="Path 28" d="M1040.427,42.026l-5.012,1.827A11.8,11.8,0,0,0,1028,57.76l4.064,16.483L1027.12,58a11.8,11.8,0,0,0-13.486-8.154l-5.241.995,5.012-1.827a11.8,11.8,0,0,0,7.414-13.907l-4.063-16.483,4.944,16.241a11.8,11.8,0,0,0,13.486,8.154Z" fill="#faae73"/>
    <path id="Path_29" data-name="Path 29" d="M1032.567,37.505h0a4.125,4.125,0,0,0-4.842-2.72l-.406.093.4-.127a4.125,4.125,0,0,0,2.768-4.815,4.124,4.124,0,0,0,4.842,2.72l.406-.093-.4.127a4.125,4.125,0,0,0-2.768,4.815" fill="#faae73"/>
  </g>
</svg>
