<svg xmlns="http://www.w3.org/2000/svg" id="face_icon" xmlns:xlink="http://www.w3.org/1999/xlink" width="298.951" height="375.437" viewBox="0 0 298.951 375.437">
  <defs>
    <clipPath id="clip-path">
      <rect id="Rectangle_269" data-name="Rectangle 269" width="298.951" height="375.437" fill="none"/>
    </clipPath>
  </defs>
  <g id="Group_162" data-name="Group 162" opacity="0.575">
    <g id="Group_161" data-name="Group 161" clip-path="url(#clip-path)">
      <path id="Path_35" data-name="Path 35" d="M99.758,62.467a39.476,39.476,0,0,0-7.28,3.823c-3.645,2.485-7.752,6.148-8.27,11.448l3.8.324c.207-3.244,3.262-6.4,6.6-8.609A36.073,36.073,0,0,1,99.111,66.9l1.465-.657.521-.213Z" transform="translate(175.436 130.14)"/>
      <path id="Path_36" data-name="Path 36" d="M7.792,62.467,6.454,66.031l.521.21a35.585,35.585,0,0,1,7.193,4.079c2.861,2.134,5.177,4.9,5.38,7.742l3.793-.321c-.515-5.3-4.622-8.969-8.27-11.448a39.171,39.171,0,0,0-7.28-3.826" transform="translate(13.446 130.14)"/>
      <path id="Path_37" data-name="Path 37" d="M107.444,101.16a194.584,194.584,0,0,1-34.278,2.9,210.172,210.172,0,0,1-35.881-2.9c7.116,7.012,8.809,16.308,35.076,16.308s27.966-9.3,35.082-16.308" transform="translate(77.679 210.751)" fill="none" stroke="#000" stroke-miterlimit="10" stroke-width="1"/>
      <path id="Path_38" data-name="Path 38" d="M85.182,98.36c-6.441,0-11.393,1.995-13.807,5.9-2.417-3.91-7.366-5.9-13.81-5.9-8.223,0-19.8,8.078-19.8,8.078s12.765,3.268,32.683,3.268a184.5,184.5,0,0,0,34.536-3.268S93.4,98.36,85.182,98.36" transform="translate(78.673 204.917)" fill="none" stroke="#000" stroke-miterlimit="10" stroke-width="1"/>
      <path id="Path_39" data-name="Path 39" d="M44.452,56.364c14.057,1.508,35.391,10.776,47.2,17.575,2.016,1.156-3.429-14.23-9.037-16.067-29.122-9.543-39.165-7.033-39.165-7.033-17.714,2.6-26.612,12.555-26.612,12.555s19.613-7.89,27.617-7.03" transform="translate(35.073 105.293)" fill="none" stroke="#000" stroke-miterlimit="10" stroke-width="1"/>
      <path id="Path_40" data-name="Path 40" d="M104.719,50.84s-10.042-2.51-39.165,7.03C59.943,59.707,54.5,75.1,56.514,73.94c11.812-6.8,33.14-16.07,47.2-17.575,8.007-.857,27.618,7.03,27.618,7.03s-8.9-9.959-26.612-12.555" transform="translate(116.847 105.295)" fill="none" stroke="#000" stroke-miterlimit="10" stroke-width="1"/>
      <path id="Path_41" data-name="Path 41" d="M46.025,93.157c1.144-.728,3.712.879,5.245,1.841l.688.425a22.727,22.727,0,0,0,23.884,0L76.532,95c1.532-.962,4.1-2.568,5.245-1.841a3.033,3.033,0,0,0,3.284-5.1c-4.394-2.831-9.185.185-11.76,1.8l-.626.395a15.606,15.606,0,0,1-8.714,2.5,16.367,16.367,0,0,1-8.837-2.507l-.626-.389c-2.575-1.616-7.375-4.622-11.757-1.8a3.033,3.033,0,1,0,3.284,5.1" transform="translate(86.145 181.026)" fill="none" stroke="#000" stroke-miterlimit="10" stroke-width="1"/>
      <path id="Path_42" data-name="Path 42" d="M53.675,76.355a4.25,4.25,0,1,1,4.249-4.249,4.256,4.256,0,0,1-4.249,4.249m24.072-1.526c2.152,1.261,4.3,2.679,6.515,4.051a6.1,6.1,0,0,1-2.969,2.356,5.887,5.887,0,0,0,4.28-2.275l.015-.5A43,43,0,0,0,74.093,65.782a32.793,32.793,0,0,0-3.768-2.291,34.593,34.593,0,0,0-4.03-1.807,41.439,41.439,0,0,0-8.47-2.2l-1.073-.167L55.581,59.2l-1.033-.086-1.264-.028a30.8,30.8,0,0,0-4.665.379A35.19,35.19,0,0,0,40.035,62a38.091,38.091,0,0,0-7.591,4.415,37.566,37.566,0,0,0-3.327,2.846c-.734.737-1.391,1.539-2.057,2.325l-1.116-.33q-1.392-.435-2.772-.968a54.125,54.125,0,0,1-5.547-2.365A25.87,25.87,0,0,0,21.8,72.559c.8.678,1.619,1.329,2.47,1.955a22.6,22.6,0,0,0,2.707,1.757l1.905-.114.555-.395A47.96,47.96,0,0,1,42.76,69.171a42.178,42.178,0,0,1,4.93-1.2,10.118,10.118,0,1,0,17.822,1.378l1.986.623A36.186,36.186,0,0,1,70.951,71.3c1.162.462,2.269,1.042,3.416,1.616s2.266,1.224,3.379,1.912" transform="translate(36.719 123.094)" fill="none" stroke="#000" stroke-miterlimit="10" stroke-width="1"/>
      <path id="Path_43" data-name="Path 43" d="M84.048,76.353A4.252,4.252,0,1,1,88.3,72.1a4.254,4.254,0,0,1-4.252,4.252m33.245-5.1-1.116.33c-.666-.789-1.323-1.588-2.05-2.325A36.753,36.753,0,0,0,103.2,62a35.44,35.44,0,0,0-8.581-2.535,30.381,30.381,0,0,0-4.665-.376l-1.264.025-1.033.086-1.172.114-1.073.167a41.082,41.082,0,0,0-8.464,2.2,34.495,34.495,0,0,0-4.039,1.807,33.584,33.584,0,0,0-3.768,2.288A42.662,42.662,0,0,0,57.775,78.264l-.111.694a5.887,5.887,0,0,0,4.277,2.275,6.152,6.152,0,0,1-2.969-2.356c2.226-1.372,4.366-2.79,6.518-4.051,1.116-.688,2.235-1.341,3.382-1.912s2.251-1.147,3.413-1.613a33.623,33.623,0,0,1,3.453-1.332l1.986-.623a10.134,10.134,0,1,0,17.822-1.378,42.33,42.33,0,0,1,4.93,1.2,47.843,47.843,0,0,1,13.323,6.6l.555.395,1.905.111a22.314,22.314,0,0,0,2.7-1.757c.851-.623,1.674-1.28,2.473-1.955a25.638,25.638,0,0,0,4.175-4.637,55.27,55.27,0,0,1-5.55,2.365q-1.378.532-2.769.968" transform="translate(120.134 123.096)" fill="none" stroke="#000" stroke-miterlimit="10" stroke-width="1"/>
      <path id="Path_44" data-name="Path 44" d="M160.673,15.076l-.919,2.155.009-.015.345.167,1.4.6,1.751.743a11.663,11.663,0,0,1-1.218,1.97c1.662,1.2,4.52,3.268,8.186,6.022,8.96,6.734,22.709,17.507,35.341,29.193C218.2,67.57,229.709,80.258,234.14,90.337c3.2,7.132,4.529,21.62,4.5,38.52,0,25.231-2.75,56.08-5.165,78.218A203.053,203.053,0,0,1,204.753,291.7l-.774,1.255c-11,17.686-25.777,29.128-37.811,36.134a113.391,113.391,0,0,1-15.152,7.415c-1.906.762-3.432,1.3-4.471,1.643s-1.573.49-1.579.49l-.068.019.049-.009-.922.231a63.264,63.264,0,0,1-13.557,1.341c-11.236-.006-27.9-2.442-46.312-13.465-42.347-25.3-56.57-79.763-59.814-90.792-2.294-7.671-9.395-40.552-9.383-76.331a207.831,207.831,0,0,1,3.879-41.8c4.946-23.8,20.227-38.677,34.429-47.715a103.356,103.356,0,0,1,18.9-9.407c2.5-.943,4.566-1.6,5.988-2.023s2.177-.592,2.18-.6l.037,0c61.032-15.5,77.58-31.811,81.668-37.389-1.048-.749-1.622-1.153-1.625-1.156l1.092-1.557-1.092,1.557,1.092-1.557-1.4-.6.059.028-.41-.179c-.324.715-10.317,19.4-80.29,37.148l.435,1.856-.472-1.847.037-.009A101.67,101.67,0,0,0,51.221,66.9c-14.723,9.355-30.9,25.071-36.109,50.157a211.339,211.339,0,0,0-3.956,42.578c.009,36.325,7.11,69.252,9.54,77.42,3.315,10.967,17.483,66.535,61.5,92.966,19.061,11.421,36.464,14.011,48.242,14.011h.028a60.933,60.933,0,0,0,15.522-1.724l-.509-1.832.53,1.825-.022.006,0,.006c.191-.077,38.317-10.61,61.22-47.348l.777-1.261a206.9,206.9,0,0,0,29.276-86.216c2.417-22.212,5.186-53.138,5.186-78.628-.025-17.143-1.181-31.718-4.832-40.056-6.586-14.757-25.274-32.591-42.387-47.067C178.128,27.3,162.622,16.442,162.6,16.423Zm-.91,2.14-.006.015.351.151Zm-.009.015h0Zm0,0h0Zm0,0h0l.41.179-.059-.028Z" transform="translate(23.242 31.408)"/>
      <path id="Path_45" data-name="Path 45" d="M20.979,57.361h-.031a18.551,18.551,0,0,0-2.109.123c-6.817.78-11.6,5.143-14.547,9.984A29.017,29.017,0,0,0,0,81.488l.04,1.018a182.223,182.223,0,0,0,4.033,23.248c2.5,10.357,5.988,21.287,11.177,27.331,3.589,4.122,6.546,7.363,9.722,9.669a17.533,17.533,0,0,0,10.647,3.58h.071a32.225,32.225,0,0,0,9.133-1.56l1.721-.515-.413-1.745c0-.006-.543-2.3-1.363-6.2C42.3,124.618,37.382,98.6,37.389,78.553c0-2.43.068-4.77.228-6.978l.022-.339-.1-.324-1.825.53-1.832.527-.1-.293c-.145,2.2-.21,4.5-.21,6.876.012,23.936,6.706,55.306,8.442,63.048q.828-.213,1.714-.475l.543,1.825-1.853.435c0-.009-.148-.638-.4-1.785a25.547,25.547,0,0,1-6.333.925,13.628,13.628,0,0,1-8.488-2.858c-2.689-1.939-5.532-5-9.08-9.08-4.323-4.9-7.97-15.617-10.345-25.715A177.088,177.088,0,0,1,3.839,82.21l-.031-.722A25.416,25.416,0,0,1,7.539,69.454c2.6-4.2,6.386-7.57,11.738-8.186l1.671-.1A12.264,12.264,0,0,1,31.031,66.5a19.876,19.876,0,0,1,2.22,3.811l.5,1.249.04.12c.009-.123.015-.247.025-.37l1.9.136,1.825-.53a22.726,22.726,0,0,0-3.469-6.7,16.118,16.118,0,0,0-13.095-6.848M33.815,71.307l1.9.136Z" transform="translate(0 119.503)"/>
      <path id="Path_46" data-name="Path 46" d="M107.421,57.36a16.114,16.114,0,0,0-13.089,6.851,22.875,22.875,0,0,0-3.472,6.7l-.089.327.019.339,1.9-.136,1.9-.136.028.379.04-.126a19.5,19.5,0,0,1,3.549-6.08,11.936,11.936,0,0,1,9.247-4.311l1.668.1c5.359.617,9.151,3.984,11.748,8.189A25.362,25.362,0,0,1,124.6,81.487l-.028.731a177.016,177.016,0,0,1-3.934,22.653c-2.374,10.1-6.025,20.816-10.345,25.715-3.549,4.089-6.392,7.141-9.084,9.084a13.653,13.653,0,0,1-8.488,2.858,25.67,25.67,0,0,1-6.33-.925c-.256,1.147-.4,1.776-.407,1.782l-1.85-.432.543-1.828q.888.264,1.714.478c1.733-7.742,8.427-39.115,8.442-63.048,0-2.371-.068-4.668-.213-6.87l-.1.287-1.825-.53-1.9.136c.154,2.2.231,4.545.231,6.978,0,13.357-2.183,29.39-4.372,42.041-1.095,6.327-2.189,11.812-3.009,15.716s-1.363,6.2-1.369,6.2l-.407,1.748,1.721.512a32.256,32.256,0,0,0,9.133,1.563h.071a17.559,17.559,0,0,0,10.65-3.583c3.173-2.306,6.133-5.544,9.719-9.666,5.189-6.043,8.68-16.977,11.18-27.334a181.946,181.946,0,0,0,4.03-23.248l.037-1.018a28.96,28.96,0,0,0-4.289-14.017c-2.942-4.841-7.73-9.207-14.556-9.987a18.417,18.417,0,0,0-2.106-.123ZM92.692,71.442l1.825.53Z" transform="translate(170.549 119.5)"/>
      <path id="Path_47" data-name="Path 47" d="M143.228,0h-.022q-1.878,0-3.786.056C57.505,2.211,27.1,51.15,26.958,51.442l.059-.083,1.56,1.085-1.619-1C9.365,76.806,5.165,108.857,5.153,134.122a222.215,222.215,0,0,0,3.9,42.273l3.722-.8c0-.006-.234-1.07-.589-3.1a228.78,228.78,0,0,1-3.228-38.372C8.952,109.24,13.188,77.857,30.14,53.53l.031-.04.028-.046.315-.484c3.4-5.017,33.726-47.086,109.008-49.1,1.243-.031,2.47-.052,3.685-.052,38.7.006,66.838,16.268,85.393,32.588a145.61,145.61,0,0,1,20.668,22.431c2.263,3.053,3.947,5.6,5.06,7.366.555.888.968,1.582,1.243,2.047l.392.691-.009-.018,1.684-.888-1.671.907h0c.046.089.268.515.648,1.3,2.988,6.207,15.133,33.769,15.13,70.473a161.534,161.534,0,0,1-4.431,37.737l3.7.888a165.277,165.277,0,0,0,4.539-38.625c-.012-42.914-16.151-73.408-16.231-73.565l-.009-.022c-.071-.13-9.151-16.832-28.188-33.578C212.1,16.795,183.025,0,143.228,0" transform="translate(10.735)"/>
      <path id="Path_48" data-name="Path 48" d="M35.87,101.018s41.813,10.206,78.89-.607" transform="translate(74.729 209.19)" fill="none" stroke="#000" stroke-miterlimit="10" stroke-width="1"/>
    </g>
  </g>
</svg>
