<?xml version="1.0" encoding="UTF-8"?>
<svg id="Layer_2" data-name="Layer 2" xmlns="http://www.w3.org/2000/svg" viewBox="0 0 296.34 81.83">
  <defs>
    <style>
      .cls-1 {
        fill: #fee7d5;
      }

      .cls-2 {
        fill: #fbaf73;
      }
    </style>
  </defs>
  <g id="Layer_1-2" data-name="Layer 1">
    <g>
      <g>
        <path class="cls-2" d="M33.65,27.91c0,10.24-8.74,18.09-20.73,18.09H0v-.36c.78-.47,1.14-1.24,1.14-3.05V13.28c0-1.81-.36-2.58-1.14-3.05v-.41H12.92c11.99,0,20.73,7.91,20.73,18.09Zm-4.08,0c0-9.51-6.31-17.68-16.65-17.68H5.22V45.64h7.7c10.34,0,16.65-8.17,16.65-17.73Z"/>
        <path class="cls-2" d="M43.79,13.28v29.31c0,1.81,.36,2.58,1.19,3.05v.36h-6.41v-.36c.78-.47,1.14-1.24,1.14-3.05V13.28c0-1.81-.36-2.58-1.14-3.05v-.41h6.41v.41c-.83,.47-1.19,1.24-1.19,3.05Z"/>
        <path class="cls-2" d="M76.67,14.16l-1.55,5.38h-.36c-2.95-6.93-6.72-9.56-10.8-9.56-5.12,0-8.06,2.89-8.37,6-.98,10.34,21.2,6.93,21.2,19.85,0,6.15-5.53,10.49-12.87,10.49-6.15,0-9.98-2.07-14.01-5.12l1.55-5.89h.36c2.64,5.27,7.44,9.98,14.22,9.98,4.39,0,8.06-2.84,8.48-6.1,1.34-11.01-20.88-7.5-20.88-20.47,0-4.19,3.36-9.41,11.68-9.41,3.98,0,8.32,2.48,11.37,4.86Z"/>
        <path class="cls-2" d="M117.61,35.77c-2.79,5.79-7.75,10.55-16.9,10.55-10.18,0-19.02-8.27-19.02-18.51s9.25-18.51,19.49-18.51c5.58,0,8.94,1.45,13.34,4.34l-1.55,5.89h-.36c-3.77-6-9.93-10.44-16.7-8.99-8.84,1.91-12.04,12.35-9.25,21.51,2.79,9.1,10.24,13.85,19.33,12.46,4.65-.67,8.63-3.72,11.27-8.89l.36,.16Z"/>
        <path class="cls-1" d="M173.58,27.81c0,13.99-11.72,25.42-25.78,25.42s-25.78-11.43-25.78-25.42,11.72-25.42,25.78-25.42,25.78,11.36,25.78,25.42Zm-6.82-5.82c-3.83-12.5-14.34-21.51-26.2-17.89-11.86,3.62-15.55,16.97-11.72,29.47,3.83,12.57,14.34,21.59,26.2,17.96,11.86-3.62,15.55-16.97,11.72-29.54Z"/>
        <path class="cls-2" d="M200.48,19.74l-7.75,21.81,1.71,4.45h-4.08s-8.58-22.23-10.13-26.26c-1.55-3.98-3.46-7.19-5.38-9.51v-.41h7.91v.41c-1.29,1.34-.88,3.15,.57,6.93l9.2,23.88,7.55-21.3c1.65-4.65,1.91-7.19-.31-9.51v-.41h6.15v.41c-2.22,2.33-3.72,4.7-5.43,9.51Z"/>
        <path class="cls-2" d="M231.92,39.75l-1.14,6.25h-20.99v-.36c.78-.47,1.14-1.24,1.14-3.05V13.28c0-1.81-.36-2.58-1.14-3.05v-.41h19.33l1.09,5.74-.26,.21c-2.38-2.69-5.58-5.53-11.32-5.53h-3.62v15.25l13.03-1.14v2.64l-13.03-1.09v19.75h4.19c5.69,0,9.98-2.95,12.41-6.1l.31,.21Z"/>
        <path class="cls-2" d="M264.44,45.64v.36h-7.96v-.36c1.34-1.34,.26-3.21-1.76-6.77l-5.53-9.67c-.78,.05-1.55,.1-2.33,.1h-4.81v13.29c0,1.81,.36,2.58,1.14,3.05v.36h-6.36v-.36c.78-.47,1.14-1.24,1.14-3.05V13.28c0-1.86-.36-2.58-1.14-3.05v-.41h10.03c8.01,0,15.25,3,15.25,9.77,0,4.86-3.88,7.81-9.05,9l4.65,8.17c3.05,5.33,4.7,7.08,6.72,8.89Zm-6.41-26.06c0-4.03-1.34-9.36-11.17-9.36h-4.81V28.89h4.81c9.77,0,11.17-5.33,11.17-9.31Z"/>
        <path class="cls-2" d="M296.34,9.82v.41c-2.38,2.02-3.52,3.1-6.15,8.69l-6.62,14.22v9.46c0,1.81,.36,2.58,1.19,3.05v.36h-6.41v-.36c.78-.47,1.14-1.24,1.14-3.05v-8.89s-8.68-16.28-9.77-18.4c-1.14-2.07-2.89-3.72-4.5-5.07v-.41h9.05v.41c-1.34,1.34-1.34,3.52,.62,7.19l8.27,15.56,7.03-14.94c2.17-4.86,1.91-6.26,.05-7.81v-.41h6.1Z"/>
      </g>
      <g>
        <path class="cls-1" d="M130.31,68.09l-.14,.07c-1.06-1.2-2.54-2.75-5.15-2.75h-.52v14.73c0,.82,.19,1.18,.54,1.39v.16h-2.92v-.16c.35-.21,.54-.56,.54-1.39v-14.73h-.52c-2.61,0-4.09,1.55-5.15,2.75l-.14-.07,.75-2.87h11.95l.75,2.87Z"/>
        <path class="cls-1" d="M148.68,73.41c0,4.63-3.88,8.42-8.54,8.42s-8.54-3.79-8.54-8.42,3.88-8.42,8.54-8.42,8.54,3.76,8.54,8.42Zm-2.26-1.93c-1.27-4.14-4.75-7.13-8.68-5.93-3.93,1.2-5.15,5.62-3.88,9.76,1.27,4.16,4.75,7.15,8.68,5.95,3.93-1.2,5.15-5.62,3.88-9.79Z"/>
        <path class="cls-1" d="M168,73.41c0,4.63-3.88,8.42-8.54,8.42s-8.54-3.79-8.54-8.42,3.88-8.42,8.54-8.42,8.54,3.76,8.54,8.42Zm-2.26-1.93c-1.27-4.14-4.75-7.13-8.68-5.93-3.93,1.2-5.15,5.62-3.88,9.76,1.27,4.16,4.75,7.15,8.68,5.95,3.93-1.2,5.15-5.62,3.88-9.79Z"/>
        <path class="cls-1" d="M180.57,78.85l-.52,2.85h-9.81v-.16c.38-.21,.54-.56,.54-1.39v-13.34c0-.85-.16-1.18-.54-1.39v-.19h2.92v.19c-.35,.21-.52,.54-.52,1.39v14.73h2.14c2.61,0,4.54-1.34,5.65-2.78l.14,.09Z"/>
      </g>
      <g>
        <path class="cls-2" d="M164.09,23.4l-5.01,1.83c-5.66,2.06-8.86,8.06-7.41,13.91l4.06,16.48-4.94-16.24c-1.75-5.76-7.57-9.28-13.49-8.15l-5.24,1,5.01-1.83c5.66-2.06,8.86-8.06,7.41-13.91L140.42,0l4.94,16.24c1.75,5.76,7.57,9.28,13.49,8.15l5.24-1Z"/>
        <path class="cls-2" d="M156.24,18.88h0c-.67-2.02-2.77-3.2-4.84-2.72l-.41,.09,.4-.13c2.03-.65,3.23-2.74,2.77-4.81h0s0,0,0,0c.67,2.02,2.77,3.2,4.84,2.72l.41-.09-.4,.13c-2.03,.65-3.23,2.74-2.77,4.81h0Z"/>
      </g>
    </g>
  </g>
</svg>