<?xml version="1.0" encoding="UTF-8"?>
<svg id="Layer_2" data-name="Layer 2" xmlns="http://www.w3.org/2000/svg" viewBox="0 0 121 121">
  <defs>
    <style>
      .cls-1 {
        fill: #fff;
      }

      .cls-2 {
        fill: #512a4e;
      }

      .cls-3 {
        stroke: #fff;
        stroke-width: .75px;
      }

      .cls-3, .cls-4 {
        fill: none;
        stroke-miterlimit: 10;
      }

      .cls-4 {
        stroke: #fbaf73;
        stroke-width: 2px;
      }
    </style>
  </defs>
  <g id="Layer_1-2" data-name="Layer 1">
    <g>
      <rect class="cls-2" x="1" width="120" height="120"/>
      <g>
        <g>
          <polygon class="cls-1" points="62.59 61.51 63.56 61.26 81.73 56.63 80.44 52.67 63.17 59.54 62.05 59.98 62.12 58.98 62.12 58.98 63.33 40.27 59.16 40.27 60.36 58.82 60.44 60.02 59.5 59.65 42.08 52.71 40.79 56.68 58.81 61.27 59.97 61.57 59.33 62.35 47.35 76.77 50.72 79.22 60.66 63.51 60.66 63.5 61.3 62.49 61.83 63.34 71.85 79.19 75.23 76.74 63.35 62.43 62.59 61.51"/>
          <circle class="cls-3" cx="61.26" cy="59.75" r="39.24"/>
        </g>
        <polyline class="cls-4" points="121 120 1 120 1 0"/>
      </g>
    </g>
  </g>
</svg>